<?xml version="1.0" encoding="UTF-8" standalone="no"?>
<!-- Created with Inkscape (http://www.inkscape.org/) -->

<svg
   xmlns:dc="http://purl.org/dc/elements/1.1/"
   xmlns:cc="http://creativecommons.org/ns#"
   xmlns:rdf="http://www.w3.org/1999/02/22-rdf-syntax-ns#"
   xmlns:svg="http://www.w3.org/2000/svg"
   xmlns="http://www.w3.org/2000/svg"
   xmlns:sodipodi="http://sodipodi.sourceforge.net/DTD/sodipodi-0.dtd"
   xmlns:inkscape="http://www.inkscape.org/namespaces/inkscape"
   width="50.827599mm"
   height="42.070122mm"
   viewBox="0 0 50.827599 42.070122"
   version="1.1"
   id="svg6206"
   inkscape:version="0.92.4 (5da689c313, 2019-01-14)"
   sodipodi:docname="sword-stone-pull.svg">
  <defs
     id="defs6200">
    <linearGradient
       id="paint1_linear"
       x1="6173.6602"
       y1="12809"
       x2="6184.6299"
       y2="12699.8"
       gradientUnits="userSpaceOnUse"
       gradientTransform="matrix(0.26458333,0,0,0.26458333,-1573.0102,-3307.4378)">
      <stop
         stop-color="#808080"
         stop-opacity="0.25"
         id="stop2222" />
      <stop
         offset="0.54"
         stop-color="#808080"
         stop-opacity="0.12"
         id="stop2224" />
      <stop
         offset="1"
         stop-color="#808080"
         stop-opacity="0.1"
         id="stop2226" />
    </linearGradient>
    <linearGradient
       id="paint0_linear"
       x1="6171.6699"
       y1="12805.7"
       x2="6205.7798"
       y2="12690.5"
       gradientUnits="userSpaceOnUse"
       gradientTransform="matrix(0.26458333,0,0,0.26458333,-1573.0102,-3307.4378)">
      <stop
         stop-color="#808080"
         stop-opacity="0.25"
         id="stop2215" />
      <stop
         offset="0.54"
         stop-color="#808080"
         stop-opacity="0.12"
         id="stop2217" />
      <stop
         offset="1"
         stop-color="#808080"
         stop-opacity="0.1"
         id="stop2219" />
    </linearGradient>
  </defs>
  <sodipodi:namedview
     id="base"
     pagecolor="#ffffff"
     bordercolor="#666666"
     borderopacity="1.0"
     inkscape:pageopacity="0.0"
     inkscape:pageshadow="2"
     inkscape:zoom="1.979899"
     inkscape:cx="139.83922"
     inkscape:cy="7.0411158"
     inkscape:document-units="mm"
     inkscape:current-layer="layer1"
     showgrid="false"
     inkscape:pagecheckerboard="true"
     fit-margin-top="0"
     fit-margin-left="0"
     fit-margin-right="0"
     fit-margin-bottom="0"
     inkscape:window-width="1278"
     inkscape:window-height="1402"
     inkscape:window-x="1280"
     inkscape:window-y="0"
     inkscape:window-maximized="0" />
  <metadata
     id="metadata6203">
    <rdf:RDF>
      <cc:Work
         rdf:about="">
        <dc:format>image/svg+xml</dc:format>
        <dc:type
           rdf:resource="http://purl.org/dc/dcmitype/StillImage" />
        <dc:title></dc:title>
      </cc:Work>
    </rdf:RDF>
  </metadata>
  <g
     inkscape:label="Layer 1"
     inkscape:groupmode="layer"
     id="layer1"
     transform="translate(-23.723105,-40.863749)">
    <path
       d="m 26.681748,62.453911 c 0.142875,1.613958 1.053041,3.095625 1.608666,4.630208 0.785813,2.196041 0.859896,4.577291 0.211667,6.82625 -0.132292,0.449791 -0.296333,0.926041 -0.296333,1.402291 0,1.613959 1.833562,2.69875 3.497791,3.413125 4.233334,1.799167 8.646584,3.148542 13.165667,4.021667 1.476375,0.264583 3.323167,0.396875 4.257146,-0.661458 0.449792,-0.502709 0.558271,-1.190625 0.886354,-1.74625 0.841376,-1.455209 2.886605,-2.037292 4.722813,-2.354792 2.211917,-0.396875 4.445,-0.635 6.688667,-0.767292 2.256896,-0.132291 4.820708,-0.238125 6.31825,-1.74625 0.9525,-0.9525 1.227666,-2.248958 1.267354,-3.4925 0.121708,-4.074583 -1.801813,-8.493124 0.669396,-12.012082 1.034521,-1.481667 2.727854,-2.54 3.757083,-4.021667 1.489604,-2.169583 1.359958,-4.894792 0.351896,-7.170209 -1.008063,-2.301875 -2.794,-4.233333 -4.553479,-6.138333 -0.582084,-0.635 -1.203854,-1.296458 -2.076979,-1.5875 -0.910167,-0.3175 -1.942042,-0.15875 -2.918355,-0.02646 -4.437062,0.661458 -9.040812,1.375833 -12.7635,3.624791 -1.846791,1.11125 -3.391958,2.54 -5.040312,3.889375 -3.561292,2.857501 -7.688792,5.529792 -12.390438,6.667501 -3.820583,0.926041 -7.707313,3.413125 -7.363354,7.249583 z"
       id="path24"
       inkscape:connector-curvature="0"
       style="opacity:0.77525096;fill:#00225c;stroke-width:0.26458332" />
    <path
       d="m 58.775707,77.905577 c 0.07673,-1.058333 0.05292,-1.878542 -0.04763,-1.957917 -0.04233,-0.05292 -0.08202,-0.15875 -0.111125,-0.3175 0.105833,-0.07937 0.164041,-0.15875 0.137583,-0.264583 -0.124354,-0.529167 -2.119313,-4.445 -2.439458,-4.524375 -0.320146,-0.05292 -0.254,-5.847291 -0.254,-5.847291 l 0.468312,-4.392083 h -0.0079 c 0.03969,-0.238125 0.103187,-0.47625 0.193145,-0.714375 0.01852,-0.02646 0.03704,-0.07937 0.05556,-0.132292 0.388937,0.02646 0.759354,-0.15875 1.0795,-0.608542 0.346604,-0.502708 0.672042,-0.926041 0.965729,-1.322916 0.693208,-0.555625 1.547813,-1.375834 1.793875,-2.354792 0.439208,-1.719792 -1.563687,-3.4925 -1.563687,-3.4925 L 58.42384,51.553078 c -0.0079,-0.02646 -0.01588,-0.05292 -0.02117,-0.05292 -0.0079,-0.02646 -0.01323,-0.05292 -0.01852,-0.07938 0.145521,-0.02646 0.28575,-0.05292 0.423334,-0.105833 0.124354,0.105833 0.28575,0.105833 0.425979,0.05292 l 0.0079,-0.02646 c 0.02381,0 0.04498,0 0.06879,0 0.06615,-0.05292 0.132292,-0.105833 0.1905,-0.132292 0.243417,-0.185208 0.534458,-0.291041 0.801687,-0.423333 0.452438,-0.264584 0.846667,-0.661459 0.960438,-1.164167 0.0344,-0.15875 0.05027,-0.343958 0.05292,-0.502708 0.01323,-0.105834 0.0026,-0.238125 -0.02911,-0.343959 -0.03175,-0.105833 -0.08996,-0.185208 -0.127,-0.264583 -0.07937,-0.211667 -0.04762,-0.423333 -0.05027,-0.635 -0.0053,-0.396875 -0.142875,-0.79375 -0.418042,-1.084792 -0.275167,-0.291041 -0.687917,-0.423333 -1.071563,-0.343958 -0.103187,0.02646 -0.203729,0.05292 -0.301625,0.07937 -0.04498,0.02646 -0.08731,0.05292 -0.132291,0.05292 -0.171979,0.07937 -0.343959,0.105833 -0.521229,0.07937 -0.211667,-0.05292 -0.396875,-0.238125 -0.613834,-0.211667 -0.04762,0 -0.08996,0.02646 -0.132291,0.05292 -0.07673,0.02646 -0.150813,0.05292 -0.216959,0.105834 -0.0979,0.07937 -0.1905,0.15875 -0.277812,0.238125 -0.111125,0.105833 -0.216959,0.238125 -0.232834,0.396875 -0.0079,0.105833 0.03704,0.238125 0.121709,0.343958 -0.510646,0.238125 -0.899584,0.687917 -1.068917,1.217083 -0.166687,0.555625 -0.100542,1.137709 0.185208,1.640417 -0.0026,0 -0.0079,0.02646 -0.01058,0.05292 -0.03175,0.185208 -0.07144,0.343958 -0.119062,0.502709 0,-0.02646 0.0053,-0.05292 0.01323,-0.07938 -0.03175,-0.02646 -0.0635,-0.02646 -0.0979,-0.02646 h -0.01588 c -0.0291,0 -0.05821,0 -0.08996,-0.02646 h -0.0079 c -0.455083,-0.05292 -1.010708,0 -1.325562,0.185208 -0.518584,0.291042 -0.92075,0.767292 -1.150938,1.322917 -0.333375,0.343958 -0.587375,0.740833 -0.748771,1.190625 -0.232833,-0.105833 -0.486833,-0.15875 -0.746125,-0.15875 -0.383646,-0.767292 -1.108604,-1.719792 -2.058458,-0.687917 -1.002771,1.058334 0.227542,1.375834 1.068917,1.481667 0.0291,0.07937 0.07144,0.185208 0.129645,0.264583 0.06086,0.07937 0.127,0.185209 0.201084,0.264584 -0.02646,0 -0.05556,0 -0.08467,0 -0.193146,-0.05292 -0.179917,1.931458 0.687917,2.513541 -0.145521,0.370417 -0.330729,0.714375 -0.555625,1.031875 -0.320146,0.47625 -0.5715,0.978959 -0.746125,1.508125 -0.08996,0.264584 -0.153459,0.529167 -0.134938,0.687917 0.0026,0.02646 0.0053,0.02646 0.01058,0.05292 0.0026,0 0.0053,0 0.0079,0.02646 0.0026,0 0.0053,0 0.01058,0 0.0026,0 0.0079,0.02646 0.01058,0.02646 0.0053,0 0.01058,0 0.01588,0 0.0053,0 0.01058,0 0.01588,0 0.0053,0.02646 0.01058,0.02646 0.01587,0.02646 h 0.0026 c 0.0053,0 0.01323,0 0.01852,0 h 0.0053 c 0.0053,0 0.01323,0 0.02117,0 h 0.0026 l 0.02117,-0.02646 h 0.0079 0.02117 0.01058 l 0.02381,-0.02646 h 0.01058 0.02646 l 0.01058,-0.02646 h 0.03175 l 0.0079,-0.02646 0.04233,-0.02646 c -0.03969,0.07937 -0.08996,0.185208 -0.145521,0.264583 -0.272521,0.449792 -0.722312,0.978959 -1.386417,1.137709 -1.230312,0.264583 -4.40002,4.339166 -4.40002,4.339166 0,0 -0.978959,-0.05292 -0.582084,3.069166 0.396875,3.148542 0.470959,4.841875 0.470959,4.841875 l 0.01852,0.02646 c -0.373062,0.423333 -1.12977,1.190625 -1.788583,1.190625 -0.912812,0 -1.449917,0.608541 -1.016,1.005416 0.433917,0.370417 5.162021,-0.238125 5.162021,-0.238125 0,0 0.03175,-1.243541 -0.193146,-1.799166 0.03704,-0.05292 0.07408,-0.07937 0.105833,-0.105834 l -0.232833,-6.297083 c 0,0 2.95275,-2.566458 4.392084,-2.804583 -0.01058,0 -0.02117,-0.02646 -0.0291,-0.02646 0.08996,0 0.182563,0 0.275167,0 1.259417,0.185208 2.211917,5.953124 2.211917,5.953124 0,0 0.232833,0.899584 0.923396,1.613959 0.693208,0.687916 2.227791,3.413125 2.227791,3.413125 h 0.0635 0.0079 c 0,0.423333 -0.06085,1.031875 -0.378354,1.508125 -0.52123,0.79375 0.941916,1.11125 0.941916,1.11125 0,0 1.063625,0.291041 1.137709,-0.767292 z"
       id="path26"
       style="fill:url(#paint0_linear);stroke-width:0.26458332"
       inkscape:connector-curvature="0" />
    <path
       d="m 45.440706,73.936827 c 0,0 -1.09802,1.349375 -2.005541,1.349375 -0.907521,0.02646 -1.444625,0.582083 -1.013354,0.926042 0.433916,0.343958 5.138208,-0.211667 5.138208,-0.211667 0,0 0.04498,-1.640417 -0.362479,-1.878542 -0.407459,-0.238125 -1.756834,-0.185208 -1.756834,-0.185208 z"
       id="path28"
       inkscape:connector-curvature="0"
       style="fill:#444176;stroke-width:0.26458332" />
    <path
       d="m 57.526873,75.603702 c 0,0 0.15875,1.164167 -0.333375,1.957917 -0.492125,0.79375 0.889,1.11125 0.889,1.11125 0,0 1.005417,0.291041 1.0795,-0.767292 0.07144,-1.058333 0.04762,-1.878542 -0.04498,-1.957917 -0.09525,-0.07937 -0.174625,-0.687916 -0.174625,-0.687916 z"
       id="path30"
       inkscape:connector-curvature="0"
       style="fill:#444176;stroke-width:0.26458332" />
    <path
       d="m 57.518936,76.053494 c 0,0 -1.534584,-2.672292 -2.225146,-3.386667 -0.690563,-0.687917 -0.923396,-1.5875 -0.923396,-1.5875 0,0 -0.955146,-5.714999 -2.211917,-5.873749 -1.25677,-0.185209 -4.704291,2.778124 -4.704291,2.778124 l 0.243416,6.217708 c -0.746125,0.873125 -2.214562,-0.05292 -2.214562,-0.05292 0,0 -0.07673,-1.693334 -0.470959,-4.788959 -0.396875,-3.122082 0.579438,-3.042707 0.579438,-3.042707 0,0 3.161771,-4.048125 4.394729,-4.312709 0.664104,-0.15875 1.11125,-0.661458 1.383771,-1.11125 0.137583,-0.238125 0.254,-0.47625 0.338667,-0.714375 l 5.259916,0.555625 -0.465666,4.365625 c 0,0 -0.0635,5.715 0.256646,5.794375 0.320145,0.07937 2.312458,3.942291 2.439458,4.471458 0.124354,0.502708 -1.680104,0.687917 -1.680104,0.687917 z"
       id="path32"
       inkscape:connector-curvature="0"
       style="fill:#565387;stroke-width:0.26458332" />
    <g
       id="g38"
       transform="matrix(0.26458333,0,0,0.26458333,-1573.0102,-3307.4379)"
       style="opacity:0.1">
      <path
         d="m 6140.45,12746.4 c -0.21,-0.1 -0.45,-0.2 -0.69,-0.3 -4.7,-0.6 -17.57,10.7 -17.57,10.7 l 0.92,23.8 c -0.84,1 -1.92,1.3 -3.01,1.4 1.66,0.4 3.58,0.3 4.9,-1.2 l -0.92,-23.8 c 0,0 11,-9.7 16.37,-10.6 z"
         id="path34"
         inkscape:connector-curvature="0"
         style="fill:#000000" />
      <path
         d="m 6167.91,12785.2 c -0.47,-2 -7.9,-16.8 -9.1,-17 -1.2,-0.3 -0.96,-22.2 -0.96,-22.2 l 1.74,-16.6 -1.88,-0.2 -1.74,16.6 c 0,0 -0.24,21.9 0.96,22.2 1.19,0.2 8.63,15 9.1,17 0.32,1.3 -2.66,2.1 -4.62,2.4 l 0.24,0.4 c 0,0 6.73,-0.6 6.26,-2.6 z"
         id="path36"
         inkscape:connector-curvature="0"
         style="fill:#000000" />
    </g>
    <path
       d="m 59.733498,53.034744 c 0,0 -5.042958,-0.15875 -4.119562,-0.820208 0.566208,-0.396875 0.812271,-1.190625 0.918104,-1.74625 0.03969,-0.185209 0.0635,-0.370417 0.07673,-0.582084 0,0 2.688167,-0.264583 2.026708,0.714375 -0.171979,0.264584 -0.179916,0.529167 -0.09525,0.820209 0.23548,0.820208 1.193271,1.613958 1.19327,1.613958 z"
       id="path40"
       inkscape:connector-curvature="0"
       style="fill:#ffbec7;stroke-width:0.26458332" />
    <path
       d="m 54.486811,51.976411 c 0,0 -1.235604,0.687917 -1.481667,2.275417 -0.243417,1.5875 -0.4445,-0.05292 -0.4445,-0.05292 0,0 -0.706437,0.687917 -0.926042,0.635 -0.216958,-0.07938 -0.179916,2.38125 0.986896,2.672292 1.164167,0.3175 2.084917,-4.788959 2.084917,-4.788959 z"
       id="path42"
       inkscape:connector-curvature="0"
       style="fill:#dfe5ee;stroke-width:0.26458332" />
    <path
       d="m 54.486811,51.976411 c 0,0 -1.235604,0.687917 -1.481667,2.275417 -0.243417,1.5875 -0.4445,-0.05292 -0.4445,-0.05292 0,0 -0.706437,0.687917 -0.926042,0.635 -0.216958,-0.07938 -0.179916,2.38125 0.986896,2.672292 1.164167,0.3175 2.084917,-4.788959 2.084917,-4.788959 z"
       id="path44"
       inkscape:connector-curvature="0"
       style="opacity:0.05;fill:#000000;stroke-width:0.26458332" />
    <path
       d="m 52.854332,54.278286 c 0,0 -0.98425,-2.804583 -2.513542,-1.349375 -1.529292,1.455208 1.846792,1.42875 1.846792,1.42875 z"
       id="path46"
       inkscape:connector-curvature="0"
       style="fill:#ffbec7;stroke-width:0.26458332" />
    <path
       d="m 58.839207,50.600577 c -0.166688,0.264584 -0.17198,0.555626 -0.0926,0.820209 -0.772583,0.105833 -1.531937,-0.264583 -1.92352,-0.9525 0.03704,-0.185209 0.06085,-0.370417 0.07408,-0.582084 0,0 2.577042,-0.264583 1.942042,0.714375 z"
       id="path48"
       inkscape:connector-curvature="0"
       style="opacity:0.1;fill:#000000;stroke-width:0.26458332" />
    <path
       d="m 60.371144,49.780369 c 0.156104,-1.084792 -0.600604,-2.116667 -1.693333,-2.275417 -1.092729,-0.15875 -2.106084,0.608542 -2.264834,1.719792 -0.15875,1.084792 0.600605,2.116667 1.693334,2.275417 1.092729,0.15875 2.106083,-0.608542 2.264833,-1.719792 z"
       id="path50"
       inkscape:connector-curvature="0"
       style="fill:#ffbec7;stroke-width:0.26458332" />
    <path
       d="m 56.823082,60.787036 -0.06879,0.714375 c -0.574146,-0.15875 -4.527021,-1.322917 -5.363104,-0.635 -0.03969,0.05292 -0.07937,0.07937 -0.124354,0.105833 0.137583,-0.264583 0.251354,-0.529166 0.33602,-0.79375 z"
       id="path52"
       inkscape:connector-curvature="0"
       style="opacity:0.1;fill:#000000;stroke-width:0.26458332" />
    <path
       d="m 60.992915,55.839328 c -0.272521,1.058333 -1.262063,1.957916 -1.994958,2.513541 -0.272521,0.185209 -0.55298,0.370417 -0.846667,0.529167 0,0 -0.759354,0.449792 -1.164167,1.42875 -0.150812,0.370417 -0.235479,0.79375 -0.243416,1.190625 0,0 -4.699,-1.27 -5.635625,-0.608542 -0.48948,0.370417 -0.41275,-0.132291 -0.227542,-0.687916 0.179917,-0.555625 0.436562,-1.058334 0.764646,-1.508125 0.259291,-0.370417 0.582083,-0.926042 0.679979,-1.42875 0.129646,-0.661459 1.008062,-3.201459 1.415521,-4.365625 0.219604,-0.661459 0.664104,-1.190625 1.251479,-1.508125 0.381,-0.238125 1.090083,-0.264584 1.582208,-0.15875 0,0 -0.15875,0.529166 0.574146,0.635 0.07937,0 0.156104,0.02646 0.235479,0.02646 0.291042,0.07938 1.013354,0.211667 1.3335,-0.02646 l 0.66675,0.449791 c 0,0 2.058459,1.772709 1.608667,3.518959 z"
       id="path54"
       inkscape:connector-curvature="0"
       style="fill:#dfe5ee;stroke-width:0.26458332" />
    <path
       d="m 58.728082,48.510369 c 0.04763,-0.07937 0.01323,-0.185208 -0.05556,-0.264583 -0.07144,-0.07938 -0.15875,-0.132292 -0.251354,-0.15875 l -0.452441,-0.211667 c -0.153458,-0.05292 -0.296333,-0.132292 -0.423333,-0.238125 -0.119062,-0.105833 -0.206375,-0.264583 -0.1905,-0.423333 0.01588,-0.15875 0.127,-0.291042 0.243417,-0.396875 0.08996,-0.07937 0.187854,-0.15875 0.291041,-0.238125 0.08202,-0.05292 0.179917,-0.105834 0.283105,-0.132292 0.227541,-0.02646 0.420687,0.15875 0.642937,0.211667 0.333375,0.07938 0.656167,-0.132292 0.992188,-0.211667 0.39952,-0.07937 0.833437,0.07937 1.119187,0.343958 0.28575,0.291042 0.431271,0.714375 0.436563,1.11125 0.0026,0.211667 -0.02911,0.449792 0.05556,0.635 0.03704,0.07937 0.0979,0.15875 0.129646,0.264584 0.0344,0.105833 0.04498,0.238125 0.03175,0.370416 -0.0026,0.15875 -0.01852,0.343959 -0.05292,0.502709 -0.119062,0.502708 -0.531812,0.926041 -1.005416,1.164166 -0.277813,0.158751 -0.582084,0.264584 -0.836084,0.423334 -0.06085,0.05292 -0.127,0.105833 -0.198437,0.132292 -0.142875,0.07938 -0.312209,0.05292 -0.441854,-0.02646 -0.0926,-0.05292 -0.148167,-0.15875 -0.150813,-0.264583 0.0053,-0.105833 0.07673,-0.185208 0.132292,-0.291042 0.145521,-0.211667 0.177271,-0.555625 -0.01323,-0.740833 -0.08466,-0.105833 -0.198432,-0.132291 -0.280453,-0.238124 -0.134937,-0.132292 -0.150812,-0.343959 -0.153458,-0.555625 -0.01323,-0.343959 -0.02381,-0.740834 0.132292,-1.058334"
       id="path56"
       inkscape:connector-curvature="0"
       style="opacity:0.1;fill:#000000;stroke-width:0.26458332" />
    <path
       d="m 58.672519,48.245786 c -0.07144,-0.07938 -0.15875,-0.132292 -0.251354,-0.15875 l -0.452438,-0.211667 c -0.153458,-0.05292 -0.296333,-0.132292 -0.423333,-0.238125 -0.119062,-0.105833 -0.206375,-0.264583 -0.1905,-0.423333 0.01588,-0.15875 0.127,-0.291042 0.243417,-0.396875 0.08996,-0.07937 0.187854,-0.15875 0.291041,-0.238125 0.08202,-0.05292 0.179917,-0.105834 0.283105,-0.132292 0.227541,-0.02646 0.420687,0.15875 0.642937,0.211667 0.333375,0.07938 0.656167,-0.132292 0.992188,-0.211667 0.39952,-0.07937 0.833437,0.07937 1.119187,0.343958 0.28575,0.291042 0.431271,0.714375 0.436563,1.11125 0.0026,0.211667 -0.02911,0.449792 0.05556,0.635 0.03704,0.07937 0.0979,0.15875 0.129646,0.264584 0.0344,0.105833 0.04498,0.238125 0.03175,0.370416 -0.0026,0.15875 -0.02117,0.343959 -0.05292,0.502709 -0.121708,0.502708 -0.534458,0.926041 -1.005416,1.164166 -0.277813,0.158751 -0.582084,0.264584 -0.836084,0.423334 -0.06085,0.05292 -0.129646,0.105833 -0.198437,0.132292 -0.145521,0.07938 -0.312209,0.05292 -0.4445,-0.02646 -0.08996,-0.05292 -0.148167,-0.15875 -0.148167,-0.264583 0.0053,-0.105833 0.07673,-0.185208 0.132292,-0.291042 0.14288,-0.211666 0.177276,-0.555624 -0.01587,-0.740832 -0.08202,-0.105834 -0.198438,-0.132292 -0.280459,-0.238125 -0.132291,-0.132292 -0.148166,-0.343959 -0.153458,-0.555625 -0.01323,-0.343959 -0.07673,-0.687917 0.07937,-1.031875"
       id="path58"
       inkscape:connector-curvature="0"
       style="fill:#88455e;stroke-width:0.26458332" />
    <path
       d="m 60.138311,56.553703 c -0.288396,0.3175 -0.701146,0.820208 -1.201209,1.455208 -0.259291,0.211667 -0.52652,0.370417 -0.806979,0.555625 0,0 -0.724958,0.396875 -1.108604,1.349375 -1.526646,0.07937 -3.373437,-2.936875 -3.373437,-2.936875 l 1.209145,-1.27 2.061105,1.481667 0.669395,-1.455209 c 0.36248,-0.767291 1.108605,-1.296458 1.960563,-1.375833 h 0.03175 c 0.431271,-0.02646 0.677333,0.211667 0.820208,0.555625 0.238125,0.529167 0.134938,1.190625 -0.261937,1.640417 z"
       id="path60"
       inkscape:connector-curvature="0"
       style="opacity:0.1;fill:#000000;stroke-width:0.26458332" />
    <g
       id="g68"
       transform="matrix(0.26458333,0,0,0.26458333,-1573.0102,-3307.4379)"
       style="opacity:0.05">
      <path
         d="m 6157.82,12694.1 c 0,0 -0.6,2 2.15,2.3 0.3,0.1 0.6,0.1 0.89,0.2 0.82,0.2 1.66,0.3 2.5,0.4 -0.5,-0.1 -0.93,-0.2 -1.24,-0.3 -0.31,0 -0.59,-0.1 -0.89,-0.1 -2.76,-0.4 -2.16,-2.4 -2.16,-2.4 -0.54,-0.1 -1.09,-0.1 -1.64,-0.2 0.13,0.1 0.26,0.1 0.39,0.1 z"
         id="path62"
         inkscape:connector-curvature="0"
         style="fill:#000000" />
      <path
         d="m 6169.65,12698.3 -2.5,-1.7 c -0.19,0.2 -0.4,0.3 -0.61,0.3 l 1.86,1.3 c 0,0 7.75,6.7 6.05,13.3 -1.02,4 -4.75,7.4 -7.51,9.4 -1.02,0.8 -2.08,1.5 -3.19,2.1 0,0 -2.86,1.7 -4.38,5.4 -0.55,1.3 -0.85,2.8 -0.9,4.2 0.78,0.2 1.25,0.4 1.25,0.4 0.03,-1.6 0.34,-3.1 0.92,-4.5 1.51,-3.7 4.38,-5.4 4.38,-5.4 1.1,-0.6 2.16,-1.3 3.18,-2.1 2.76,-2 6.49,-5.4 7.52,-9.4 1.69,-6.5 -6.07,-13.3 -6.07,-13.3 z"
         id="path64"
         inkscape:connector-curvature="0"
         style="fill:#000000" />
      <path
         d="m 6137.23,12730.6 -0.13,0.1 c 0.07,0.5 0.46,0.7 1.39,0 1.1,-0.8 3.57,-0.9 6.44,-0.6 -3.4,-0.4 -6.44,-0.4 -7.7,0.5 z"
         id="path66"
         inkscape:connector-curvature="0"
         style="fill:#000000" />
    </g>
    <path
       d="m 52.325165,57.532661 c 0,0 0.330729,1.005417 0.791104,1.375833 0.460375,0.370417 1.060979,1.005417 1.060979,1.005417"
       id="path70"
       inkscape:connector-curvature="0"
       style="opacity:0.05;fill:#000000;stroke-width:0.26458332" />
    <path
       d="m 58.870957,75.206827 -0.764646,-3.360208 c -0.325438,-0.529167 -0.661459,-0.846667 -0.941917,-1.005417 -0.362479,-0.211667 -0.650875,-0.211667 -0.740833,-0.211667 l -0.103188,-0.105833 c -0.388937,-0.555625 -0.597958,-2.010833 -0.597958,-2.010833 -0.01852,-0.687917 -0.447146,-1.164167 -0.997479,-1.481666 -0.928688,-0.555625 -2.262188,-0.661459 -2.545292,-0.687917 l -0.224896,-0.449792 -0.06085,-0.02646 -0.01323,-0.02646 c -0.04763,0 -0.100542,-0.02646 -0.153458,-0.02646 l 0.39952,-8.334375 0.0026,-0.07938 1.576917,0.07938 c 0.256646,0 0.470958,-0.185208 0.484187,-0.449791 0.01058,-0.264584 -0.179916,-0.502709 -0.436562,-0.502709 L 51.90708,56.421406 v -0.02646 l 0.174625,-3.598334 v -0.05292 c 0.166688,-0.132292 0.267229,-0.3175 0.275167,-0.555625 0.01852,-0.238125 -0.100542,-0.47625 -0.312208,-0.635 -0.209021,-0.132292 -0.47625,-0.132292 -0.6985,-0.02646 -0.22225,0.105834 -0.365125,0.343959 -0.373063,0.608542 -0.01058,0.211667 0.07144,0.423333 0.22225,0.555625 v 0.05292 l -0.171979,3.598333 v 0.02646 l -1.849438,-0.07938 c -0.256646,0 -0.468312,0.211667 -0.481541,0.47625 -0.01323,0.238125 0.179916,0.47625 0.436562,0.502709 l 1.497542,0.05292 -0.0026,0.105834 -0.404812,8.41375 c -0.579438,0.07938 -1.153584,0.211666 -1.714501,0.370416 l -0.650875,2.354791 -1.907645,0.343959 -0.992188,2.2225 -0.926042,1.640416 c -0.0979,0.05292 -0.193145,0.07937 -0.283104,0.105834 -3.450166,1.481666 -3.590396,5.159375 -3.590396,5.159375 0.960438,1.666875 5.815542,0.9525 5.815542,0.9525 2.770188,2.513541 8.276167,1.058333 8.276167,1.058333 1.328208,0.3175 2.378604,0.47625 3.20675,0.502708 2.312458,0.07937 2.894542,-0.687916 2.894542,-0.687916 0.830791,-2.143125 -1.476375,-4.656667 -1.476375,-4.656667 z"
       id="path72"
       style="fill:url(#paint1_linear);stroke-width:0.26458332"
       inkscape:connector-curvature="0" />
    <path
       d="m 51.018123,56.685994 0.4445,-4.206875 0.889,0.105834 -0.447146,4.180416 z"
       id="path74"
       inkscape:connector-curvature="0"
       style="fill:#5a97ff;stroke-width:0.26458332" />
    <path
       d="m 49.647581,66.263911 0.99748,-9.392708 1.505479,0.15875 -0.997479,9.392708 z"
       id="path76"
       inkscape:connector-curvature="0"
       style="fill:#f0f5fa;stroke-width:0.26458332" />
    <path
       d="m 51.42029,56.950578 0.732896,0.07937 -0.997479,9.392708 -0.732896,-0.07937 z"
       id="path78"
       inkscape:connector-curvature="0"
       style="opacity:0.05;fill:#000000;stroke-width:0.26458332" />
    <path
       d="m 50.605373,57.268078 0.04233,-0.396875 1.502833,0.15875 -0.04233,0.396875 z"
       id="path80"
       inkscape:connector-curvature="0"
       style="opacity:0.1;fill:#000000;stroke-width:0.26458332" />
    <path
       d="m 51.018123,56.685994 0.04498,-0.449791 0.889,0.105833 -0.04763,0.423333 z"
       id="path82"
       inkscape:connector-curvature="0"
       style="opacity:0.1;fill:#000000;stroke-width:0.26458332" />
    <path
       d="m 48.697727,56.500786 c 0.02646,-0.264583 0.259292,-0.449792 0.515938,-0.423333 l 4.582583,0.502708 c 0.256646,0.02646 0.4445,0.264583 0.415396,0.502708 -0.02646,0.264584 -0.256646,0.449792 -0.515937,0.423334 l -4.582584,-0.47625 c -0.256646,-0.05292 -0.441854,-0.264584 -0.415396,-0.529167 z"
       id="path84"
       inkscape:connector-curvature="0"
       style="fill:#5a97ff;stroke-width:0.26458332" />
    <path
       d="m 40.418915,77.905577 c 0,0 -0.03704,-3.757083 3.616854,-5.291667 l 0.846667,-1.666875 0.883708,-2.196041 1.886479,-0.423334 0.537104,-2.328332 c 0,0 2.079625,-0.740834 3.423709,-0.47625 l 0.269875,0.47625 c 0,0 3.463396,-0.02646 3.616854,1.878541 0,0 0.346604,1.772708 0.846667,2.090208 0,0 0.84402,-0.185208 1.690687,1.058333 l 0.923396,3.227917 c 0,0 2.423583,2.328333 1.693333,4.445 0,0 -1.000125,1.455208 -6.077479,0.47625 0,0 -5.426604,1.666875 -8.313208,-0.635 0.0026,0 -4.804834,0.9525 -5.844646,-0.635 z"
       id="path86"
       inkscape:connector-curvature="0"
       style="fill:#a8a8a8;stroke-width:0.26458332" />
    <path
       d="m 43.064748,77.111827 c 0,0 0.891646,-1.084792 0.846667,-1.852083 -0.04233,-0.767292 0.211666,-2.645834 0.211666,-2.645834"
       id="path88"
       inkscape:connector-curvature="0"
       style="opacity:0.1;stroke:#000000;stroke-width:0.26458332" />
    <path
       d="m 45.975165,74.20141 c 0,0 0.769937,-1.375833 0.693208,-2.116666 0,0 0.806979,-1.42875 1.423458,-1.322917"
       id="path90"
       inkscape:connector-curvature="0"
       style="opacity:0.1;stroke:#000000;stroke-width:0.26458332" />
    <path
       d="m 49.943915,70.23266 c 0,0 2.008187,-0.873125 2.116667,-1.5875"
       id="path92"
       inkscape:connector-curvature="0"
       style="opacity:0.1;stroke:#000000;stroke-width:0.26458332" />
    <path
       d="m 51.002248,72.084744 c 0,0 2.219854,-1.031875 2.219854,-1.322917 h 1.11125 c 0,0 1.606021,2.2225 1.415521,3.175"
       id="path94"
       inkscape:connector-curvature="0"
       style="opacity:0.1;stroke:#000000;stroke-width:0.26458332" />
    <path
       d="m 53.383498,73.698702 c 0,0 -2.116666,-0.15875 -2.873375,0.47625 -0.754062,0.635 -2.116667,0.9525 -2.116667,0.9525 0,0 -0.79375,1.799167 -1.095375,2.116667 -0.301625,0.343958 -0.79375,1.455208 -0.79375,1.455208"
       id="path96"
       inkscape:connector-curvature="0"
       style="opacity:0.1;stroke:#000000;stroke-width:0.26458332" />
    <path
       d="m 53.383498,75.78891 c 0,0 0.277813,0.820209 0.653521,1.296459 0.375708,0.449791 0.933979,2.143125 0.933979,2.143125"
       id="path98"
       inkscape:connector-curvature="0"
       style="opacity:0.1;stroke:#000000;stroke-width:0.26458332" />
    <path
       d="m 57.087665,77.905577 c 0,0 0.563562,1.5875 1.058333,1.5875"
       id="path100"
       inkscape:connector-curvature="0"
       style="opacity:0.1;stroke:#000000;stroke-width:0.26458332" />
    <path
       d="m 53.912665,72.084744 c 0,0 1.275292,0.370416 1.807104,1.243541 0.531813,0.873125 2.161646,1.666875 2.161646,1.666875"
       id="path102"
       inkscape:connector-curvature="0"
       style="opacity:0.1;stroke:#000000;stroke-width:0.26458332" />
    <path
       d="m 54.706415,68.115994 c 0,0 0,1.666875 0.500062,1.666875 0.500063,0 1.616605,0.185208 1.616605,0.185208"
       id="path104"
       inkscape:connector-curvature="0"
       style="opacity:0.1;stroke:#000000;stroke-width:0.26458332" />
    <path
       d="m 51.795998,65.999328 c 0,0 -0.08731,3.148541 -0.529166,3.968749"
       id="path106"
       inkscape:connector-curvature="0"
       style="opacity:0.1;stroke:#000000;stroke-width:0.26458332" />
    <g
       id="g114"
       transform="matrix(0.26458333,0,0,0.26458333,-1573.0102,-3307.4379)"
       style="opacity:0.05">
      <path
         d="m 6167.9,12780.2 -3.51,-12.2 c -3.21,-4.7 -6.43,-3.9 -6.43,-3.9 -1.9,-1.2 -3.21,-7.9 -3.21,-7.9 -0.59,-7.2 -13.74,-7 -13.74,-7 l -1.02,-1.8 c -1.3,-0.3 -2.77,-0.3 -4.25,-0.2 0.36,0.1 0.7,0.1 1.03,0.2 l 1.03,1.8 c 0,0 13.15,-0.2 13.73,7 0,0 1.32,6.7 3.22,7.9 0,0 3.21,-0.8 6.43,4 l 3.51,12.1 c 0,0 9.2,8.7 6.43,16.6 0,0 -1.88,2.7 -9.68,3.1 10.52,0.3 12.89,-3.1 12.89,-3.1 2.78,-7.9 -6.43,-16.6 -6.43,-16.6 z"
         id="path108"
         inkscape:connector-curvature="0"
         style="fill:#000000" />
      <path
         d="m 6116.45,12796.2 c -3.09,0.6 -6.22,0.9 -9.36,1.1 3.66,0.1 7.47,-0.3 9.92,-0.6 -0.18,-0.2 -0.37,-0.3 -0.56,-0.5 z"
         id="path110"
         inkscape:connector-curvature="0"
         style="fill:#000000" />
      <path
         d="m 6148.02,12798.6 c -4.5,1.3 -9.13,2 -13.8,2.2 6.74,0.3 13.12,-1.2 15.75,-1.8 -0.63,-0.1 -1.28,-0.3 -1.95,-0.4 z"
         id="path112"
         inkscape:connector-curvature="0"
         style="fill:#000000" />
    </g>
    <path
       d="m 51.872727,52.505578 0.463021,0.05292 -0.404812,3.81 -0.463021,-0.05292 z"
       id="path116"
       inkscape:connector-curvature="0"
       style="opacity:0.05;fill:#000000;stroke-width:0.26458332" />
    <path
       d="m 52.589748,52.611411 -0.03704,0.291042 c -0.322792,0.211666 -0.751417,0.15875 -1.021292,-0.07937 l 0.03704,-0.3175 z"
       id="path118"
       inkscape:connector-curvature="0"
       style="opacity:0.1;fill:#000000;stroke-width:0.26458332" />
    <path
       d="m 52.629436,52.320369 c 0.04233,-0.370416 -0.235479,-0.714375 -0.619125,-0.767291 -0.383646,-0.05292 -0.727604,0.238125 -0.767292,0.635 -0.04233,0.370416 0.235479,0.714375 0.619125,0.767291 0.383646,0.02646 0.727604,-0.238125 0.767292,-0.635 z"
       id="path120"
       inkscape:connector-curvature="0"
       style="fill:#5a97ff;stroke-width:0.26458332" />
    <path
       d="m 52.322519,52.320369 c -0.0291,0.449792 -0.264583,0.767292 -0.526521,0.714375 l 0.100542,-1.5875 c 0.127,0.02646 0.243417,0.132292 0.322792,0.291042 0.07937,0.15875 0.116416,0.370417 0.103187,0.582083 z"
       id="path122"
       inkscape:connector-curvature="0"
       style="opacity:0.05;fill:#000000;stroke-width:0.26458332" />
    <path
       d="m 54.970998,55.918703 -0.489479,0.820208 -0.470958,-0.423333 -0.642938,-0.582084 c 0,0 -1.190625,0.105834 -1.952625,-1.084791 -0.325437,-0.502709 -0.07144,-0.79375 0.325438,-0.9525 0.672041,-0.291042 1.439333,-0.07938 1.891771,0.502708 z"
       id="path124"
       inkscape:connector-curvature="0"
       style="fill:#ffbec7;stroke-width:0.26458332" />
    <path
       d="m 54.970998,55.733494 -0.53975,0.740834 -0.518583,-0.370417 0.762,-0.687917 z"
       id="path126"
       inkscape:connector-curvature="0"
       style="opacity:0.1;fill:#000000;stroke-width:0.26458332" />
    <path
       d="m 57.587727,55.468911 -0.672041,1.455208 -2.061104,-1.481666 -1.2065,1.27 c 0,0 2.767541,4.524375 4.328583,2.354791 0.944562,-1.349375 1.706562,-2.275416 2.159,-2.778125 0.399521,-0.449791 0.502708,-1.11125 0.264583,-1.640416 -0.142875,-0.343959 -0.388937,-0.582084 -0.820208,-0.555625 h -0.03175 c -0.851958,0.07938 -1.598083,0.608541 -1.960563,1.375833 z"
       id="path128"
       inkscape:connector-curvature="0"
       style="fill:#dfe5ee;stroke-width:0.26458332" />
    <path
       d="m 67.594269,72.349327 c 0,0 -0.47625,-2.143125 0.08731,-3.730625 0.24077,-0.661458 0.312208,-1.428749 0.206375,-2.143124 -0.05292,-0.343959 -0.127,-0.687917 -0.224896,-1.005417"
       id="path130"
       inkscape:connector-curvature="0"
       style="stroke:#535461;stroke-width:0.52916664" />
    <path
       d="m 68.200165,64.385369 c 0,0.291042 -0.529167,1.084792 -0.529167,1.084792 0,0 -0.529166,-0.79375 -0.529166,-1.084792 0,-0.264583 0.238125,-0.502708 0.529166,-0.502708 0.291042,0 0.529167,0.238125 0.529167,0.502708 z"
       id="path132"
       inkscape:connector-curvature="0"
       style="fill:#5a97ff;stroke-width:0.26458332" />
    <path
       d="m 68.925123,66.078703 c -0.145521,0.264583 -0.989541,0.714375 -0.989541,0.714375 0,0 0.01588,-1.084792 0.164041,-1.349375 0.153459,-0.238125 0.447146,-0.3175 0.669396,-0.15875 0.22225,0.185208 0.291042,0.529166 0.156104,0.79375 z"
       id="path134"
       inkscape:connector-curvature="0"
       style="fill:#5a97ff;stroke-width:0.26458332" />
    <path
       d="m 68.943644,68.565785 c -0.264583,0.132292 -1.272646,0.05292 -1.272646,0.05292 0,0 0.523875,-0.846667 0.788459,-0.978958 0.171979,-0.07938 0.383645,-0.07938 0.550333,0.02646 0.166687,0.105833 0.261937,0.291042 0.246062,0.47625 -0.01323,0.185208 -0.132291,0.343958 -0.312208,0.423333 z"
       id="path136"
       inkscape:connector-curvature="0"
       style="fill:#5a97ff;stroke-width:0.26458332" />
    <path
       d="m 68.475332,70.55016 c -0.256646,0.132292 -1.3335,0.211667 -1.3335,0.211667 0,0 0.396875,-0.79375 0.650875,-0.9525 0.164041,-0.105833 0.388937,-0.132292 0.584729,-0.07938 0.193146,0.07938 0.328083,0.211667 0.34925,0.396875 0.02117,0.15875 -0.07673,0.3175 -0.251354,0.423333 z"
       id="path138"
       inkscape:connector-curvature="0"
       style="fill:#5a97ff;stroke-width:0.26458332" />
    <path
       d="m 66.78729,66.925369 c 0.206375,0.185209 1.148292,0.396875 1.148292,0.396875 0,0 -0.230188,-0.9525 -0.433917,-1.164166 -0.129646,-0.132292 -0.322792,-0.185209 -0.508,-0.132292 -0.182563,0.05292 -0.325438,0.185208 -0.367771,0.370417 -0.04233,0.185208 0.01852,0.396875 0.161396,0.529166 z"
       id="path140"
       inkscape:connector-curvature="0"
       style="fill:#5a97ff;stroke-width:0.26458332" />
    <path
       d="m 66.398352,68.830369 c 0.264584,0.132291 1.272646,0.05292 1.272646,0.05292 0,0 -0.523875,-0.846666 -0.788458,-0.978958 -0.171979,-0.07937 -0.383646,-0.07937 -0.550333,0.02646 -0.166688,0.105834 -0.261938,0.291042 -0.246063,0.47625 0.01323,0.185209 0.132292,0.343959 0.312208,0.423334 z"
       id="path142"
       inkscape:connector-curvature="0"
       style="fill:#5a97ff;stroke-width:0.26458332" />
    <path
       d="m 66.035873,71.079327 c 0.261938,0.132292 1.370542,0.211667 1.370542,0.211667 0,0 -0.407458,-0.820209 -0.669396,-0.978959 -0.261937,-0.132291 -0.616479,-0.07937 -0.801687,0.105834 -0.187855,0.211666 -0.142875,0.502708 0.100541,0.661458 z"
       id="path144"
       inkscape:connector-curvature="0"
       style="fill:#5a97ff;stroke-width:0.26458332" />
    <path
       d="m 27.491373,64.940994 c 0,0 2.045229,2.010834 0.891646,5.000625 -1.15623,2.989791 1.981729,7.963958 1.981729,7.963958 0,0 -0.0344,0 -0.0979,-0.02646 -4.204229,-0.714373 -6.294438,-5.450415 -3.955521,-8.969373 0.870479,-1.296459 1.582208,-2.831041 1.180042,-3.96875 z"
       id="path146"
       inkscape:connector-curvature="0"
       style="fill:#5a97ff;stroke-width:0.26458332" />
    <path
       d="m 27.491373,65.205578 c 0,0 2.045229,2.010833 0.891646,5.000624 -1.15623,2.989792 1.981729,7.963958 1.981729,7.963958 0,0 -0.0344,0 -0.0979,-0.02646 -4.204229,-0.714373 -6.294438,-5.450415 -3.955521,-8.969373 0.870479,-1.296458 1.582208,-2.831041 1.180042,-3.968749 z"
       id="path148"
       inkscape:connector-curvature="0"
       style="opacity:0.1;fill:#000000;stroke-width:0.26458332" />
    <path
       d="m 27.374956,64.940994 c 0,0 1.095375,2.460625 0,4.471458 -1.098021,2.037292 -0.185208,7.672917 2.725208,8.493125"
       id="path150"
       inkscape:connector-curvature="0"
       style="stroke:#535461;stroke-width:0.26458332" />
    <path
       d="m 23.750164,73.169535 c 0,0 2.283355,-0.370416 2.48973,1.640417 0.20902,2.010833 4.389437,2.301875 4.389437,2.301875 l -0.07937,0.05292 c -3.450167,2.2225 -6.752167,1.402291 -6.252104,-1.534584 0.182562,-1.11125 0.169333,-2.2225 -0.547688,-2.460625 z"
       id="path152"
       inkscape:connector-curvature="0"
       style="fill:#5a97ff;stroke-width:0.26458332" />
    <path
       d="m 23.750164,73.143077 c 0,0 1.772709,0.370417 1.624542,1.957917 -0.145521,1.5875 2.632604,3.4925 5.254625,1.984375"
       id="path154"
       inkscape:connector-curvature="0"
       style="stroke:#535461;stroke-width:0.26458332" />
    <path
       d="m 65.554332,72.084744 c 0,0 1.06627,-0.02646 1.389062,-0.238125 0.320146,-0.211667 1.640417,-0.47625 1.719792,-0.132292 0.07937,0.343958 1.603375,1.693333 0.399521,1.693333 -1.203855,0 -2.799292,-0.185208 -3.119438,-0.343958 -0.320146,-0.185208 -0.388937,-0.978958 -0.388937,-0.978958 z"
       id="path156"
       inkscape:connector-curvature="0"
       style="fill:#a8a8a8;stroke-width:0.26458332" />
    <path
       d="m 69.083873,73.539952 c -1.203854,0 -2.799291,-0.211667 -3.119437,-0.423333 -0.243417,-0.15875 -0.341313,-0.767292 -0.375709,-1.031875 h -0.03439 c 0,0 0.06879,0.9525 0.388937,1.164166 0.320146,0.211667 1.912938,0.423334 3.119438,0.423334 0.346604,0 0.465666,-0.132292 0.460375,-0.343959 -0.04763,0.132292 -0.182563,0.211667 -0.439209,0.211667 z"
       id="path158"
       inkscape:connector-curvature="0"
       style="opacity:0.2;fill:#000000;stroke-width:0.26458332" />
    <path
       d="m 32.481414,77.746827 c 0,0 -1.751541,-0.343958 -2.219854,-0.79375 -0.468312,-0.47625 -2.57175,-1.27 -2.804583,-0.687917 -0.232833,0.582084 -3.151188,2.54 -1.166813,2.883959 1.987021,0.343958 4.672542,0.449791 5.257271,0.211666 0.582084,-0.211666 0.933979,-1.613958 0.933979,-1.613958 z"
       id="path160"
       inkscape:connector-curvature="0"
       style="fill:#a8a8a8;stroke-width:0.26458332" />
    <path
       d="m 26.290164,78.619952 c 1.987021,0.370417 4.672542,0.502708 5.257271,0.264583 0.4445,-0.185208 0.754063,-1.084791 0.875771,-1.508125 h 0.05821 c 0,0 -0.34925,1.481667 -0.933979,1.719792 -0.584729,0.238125 -3.272896,0.132292 -5.257271,-0.238125 -0.574145,-0.105833 -0.738187,-0.343958 -0.674687,-0.661458 0.04763,0.185208 0.248708,0.343958 0.674687,0.423333 z"
       id="path162"
       inkscape:connector-curvature="0"
       style="opacity:0.2;fill:#000000;stroke-width:0.26458332" />
  </g>
</svg>
